<svg width="906" height="686" viewBox="0 0 906 686" fill="none" xmlns="http://www.w3.org/2000/svg">
<g clip-path="url(#clip0_1294:4915)">
<path d="M871.4 686C580.9 686 290.5 686 0 686C0 457.6 0 229.3 0 0.900024C43.4 2.40002 104.7 11.8 153.3 54.3C206.8 101.1 201 150.1 249.7 173.6C313.9 204.5 356.9 136.6 426.2 157.3C524.8 186.7 497 343.8 609.2 394.3C679.7 426 722.4 378.2 804.9 423.6C824.2 434.2 875.9 463.6 896.8 525C923.8 604.5 878.2 675.8 871.4 686Z" fill="#DEEDFF"/>
<path d="M745.2 445.9C745.2 445.9 733.1 431.8 744.5 422.9C744.5 422.9 752.8 417.9 759.5 418.3C759.5 418.3 749.9 434.3 753 435.9C756.1 437.5 762.4 417.3 762.4 417.3C762.4 417.3 781.2 415.5 787.3 418.4C787.3 418.4 771.2 431.6 774.6 432.3C778 433.1 795.4 420.2 795.4 420.2C795.4 420.2 812.9 423.2 812 433.9C811.1 444.6 805 447.9 802.4 447.6C799.7 447.3 784.2 441.4 783.9 443.6C783.6 445.8 792.9 452.9 799.4 453.2C799.4 453.2 787.1 466.8 778.8 462.9C770.6 459 769.9 452.7 764.8 450.4C759.7 448.1 755.3 448.1 757.4 450.5C759.5 452.9 768.8 455.2 771.7 460.4C774.6 465.6 777.3 469.1 768.8 467.8C760.3 466.5 746.5 460.3 745.9 453.2C745.2 445.9 745.2 445.9 745.2 445.9Z" fill="#C8DBF4"/>
<path d="M803.3 434.1C803.3 434.1 755.7 432.3 745.2 445.9C745.2 445.9 742.9 452.9 735.7 459.2L734.6 462.2C734.6 462.2 742.8 453.5 745.8 453C745.8 453 741.2 436.2 803.3 434.1Z" fill="#C8DBF4"/>
<path d="M735.8 459.2C735.8 459.2 725.6 466.8 724.9 480.2L726.8 480.4C726.8 480.4 730.1 466.4 736 461C741.7 455.6 735.8 459.2 735.8 459.2Z" fill="#C8DBF4"/>
<path d="M703.1 428.2C703.1 428.2 722.3 417.5 713.3 402.9C713.3 402.9 706.1 393.9 698.5 391.6C698.5 391.6 702.6 413.4 698.5 413.9C694.4 414.4 695.7 389.3 695.7 389.3C695.7 389.3 675.5 379.6 667.5 380.3C667.5 380.3 680 401.5 675.9 401C671.8 400.5 657.7 379 657.7 379C657.7 379 637 375.2 633.6 387.4C630.3 399.7 635.6 405.8 638.7 406.6C641.8 407.4 661.5 407.1 661 409.7C660.5 412.3 647.2 416.4 639.8 414.1C639.8 414.1 648 434.3 658.7 433.3C669.4 432.3 672.8 425.6 679.4 425.1C686 424.6 690.9 426.4 687.6 428.2C684.3 430 673 428.8 667.6 433.4C662.2 438 657.9 440.8 667.9 442.8C677.9 444.8 695.8 443.6 699.4 435.9C703.1 428.2 703.1 428.2 703.1 428.2Z" fill="#C8DBF4"/>
<path d="M643.2 391.4C643.2 391.4 696.9 408.8 703.1 428.3C703.1 428.3 702.8 437 708.2 447V450.8C708.2 450.8 702.6 437.7 699.5 436C699.5 435.9 711.5 419 643.2 391.4Z" fill="#C8DBF4"/>
<path d="M708.2 446.9C708.2 446.9 716.5 459.5 711.8 474.8L709.7 474.2C709.7 474.2 711.8 457.3 707.4 448.8C703 440.4 708.2 446.9 708.2 446.9Z" fill="#C8DBF4"/>
<path d="M733.6 413.4C733.6 413.4 708.3 399.2 720.1 380C720.1 380 729.5 368.2 739.7 365.2C739.7 365.2 734.3 393.9 739.7 394.6C745.1 395.3 743.4 362.2 743.4 362.2C743.4 362.2 770.1 349.4 780.5 350.4C780.5 350.4 764 378.4 769.4 377.7C774.8 377 793.4 348.7 793.4 348.7C793.4 348.7 820.7 343.6 825.1 359.8C829.5 376 822.4 384.1 818.4 385.1C814.4 386.1 788.4 385.8 789.1 389.1C789.8 392.5 807.3 397.9 817.1 394.8C817.1 394.8 806.3 421.5 792.1 420.1C777.9 418.8 773.5 410 764.8 409.3C756 408.6 749.6 411 754 413.3C758.4 415.7 773.2 414.1 780.3 420.1C787.4 426.1 793.1 429.8 780 432.5C766.8 435.2 743.2 433.5 738.5 423.4C733.6 413.4 733.6 413.4 733.6 413.4Z" fill="#D4E4F8"/>
<path d="M812.5 364.8C812.5 364.8 741.7 387.7 733.6 413.4C733.6 413.4 733.9 424.9 726.9 438V443.1C726.9 443.1 734.3 425.9 738.4 423.5C738.3 423.5 722.5 401.2 812.5 364.8Z" fill="#D4E4F8"/>
<path d="M726.8 438C726.8 438 715.9 454.6 722.1 474.8L724.9 474C724.9 474 722.2 451.8 727.9 440.6C733.6 429.4 726.8 438 726.8 438Z" fill="#D4E4F8"/>
<path d="M732.7 518.6C760.1 518.6 782.3 496.4 782.3 469H683.2C683.2 496.4 705.4 518.6 732.7 518.6Z" fill="#D4E4F8"/>
<path d="M783 521.1H682.5C682.5 517.7 685.2 515 688.6 515H776.9C780.2 515 783 517.7 783 521.1Z" fill="#D4E4F8"/>
<path d="M783.4 469H681.5V470.5H783.4V469Z" fill="#9FC1F4"/>
<path d="M818.8 524.6V529.4C818.8 531.1 818.3 532.5 817.6 532.5H641.5C640.8 532.5 640.3 531.1 640.3 529.4V524.6C640.3 522.9 640.8 521.5 641.5 521.5H817.6C818.2 521.5 818.8 522.9 818.8 524.6Z" fill="#9ABFE2"/>
<path d="M818.8 524.6V529.4C818.8 531.1 818.3 532.5 817.7 532.5H677.9C677.3 532.5 676.8 531.1 676.8 529.4V524.6C676.8 522.9 677.3 521.5 677.9 521.5H817.7C818.3 521.5 818.8 522.9 818.8 524.6Z" fill="#BAD4F4"/>
<path d="M774.2 532.5H649.2V686H774.2V532.5Z" fill="#C8DBF4"/>
<path d="M809.2 532.5H684.2V686H809.2V532.5Z" fill="#DFEBFD"/>
<path d="M690.9 537.6V686H692.1V538.8H801.3V686H802.5V537.6H690.9Z" fill="#B7D3F3"/>
<path d="M801.9 592.9H691.5V594.1H801.9V592.9Z" fill="#B7D3F3"/>
<path d="M801.9 649.2H691.5V650.4H801.9V649.2Z" fill="#B7D3F3"/>
<path d="M758.1 548.4H737.6C736.6 548.4 735.8 547.6 735.8 546.6C735.8 545.6 736.6 544.8 737.6 544.8H758.1C759.1 544.8 759.9 545.6 759.9 546.6C759.9 547.6 759 548.4 758.1 548.4Z" fill="#B7D3F3"/>
<path d="M758.1 603.5H737.6C736.6 603.5 735.8 602.7 735.8 601.7C735.8 600.7 736.6 599.9 737.6 599.9H758.1C759.1 599.9 759.9 600.7 759.9 601.7C759.9 602.6 759 603.5 758.1 603.5Z" fill="#B7D3F3"/>
<path d="M758.1 660.9H737.6C736.6 660.9 735.8 660.1 735.8 659.1C735.8 658.1 736.6 657.3 737.6 657.3H758.1C759.1 657.3 759.9 658.1 759.9 659.1C759.9 660.1 759 660.9 758.1 660.9Z" fill="#B7D3F3"/>
<path d="M526.1 552.2H319.1V686H526.1V552.2Z" fill="#9ABFE2"/>
<path d="M569.8 552.2H343.6V686H569.8V552.2Z" fill="#D2E4FF"/>
<path d="M491.8 372.9V428.6L473.1 435.3L451.7 428.6C451.7 422.7 451.7 380.4 451.7 373L471.8 366.2L491.8 372.9Z" fill="#009EE2"/>
<path d="M421.6 468.8L473.8 475.5L522 468.8V428.7H421.6V468.8Z" fill="#1D70B7"/>
<path d="M572.1 468.8H371.4V519H572.1V468.8Z" fill="#1D70B7"/>
<path d="M230.3 297.6C193.7 281.6 232.3 230.5 234.1 228.5L160.8 239.1C160.8 239.1 148.2 270.9 184.9 309.7C194.2 319.5 205.8 318.1 215.9 320.8C217.8 307.4 223.9 304.5 230.3 297.6Z" fill="url(#paint0_linear_1294:4915)"/>
<path d="M135.4 686C126.3 597.9 126.6 541.9 128.6 506.4C129.1 497.8 131.1 466.1 130.4 466.1C129.7 466 127 493 126.3 500.4C122.9 534.4 119.2 590.6 118 686C94.3 686 70.6 686 46.9 686C49.5 602 52 539.8 53.1 518.5C53.5 510.5 54.3 498.1 56.4 482.2C57.3 475.2 58.5 467.5 60.1 459.2C66.4 425.9 75.6 399.2 82.7 381.3C110.2 369 152.5 353.4 168 369.8C173.1 375.3 173.6 382.5 173.8 386.3C177.4 449.9 182.7 587.5 194.1 664.7C195.4 673.8 196.7 681.2 197.6 686C176.9 686 156.2 686 135.4 686Z" fill="#0C518C"/>
<path d="M78.2 188.9C78.2 188.9 118.7 155.2 228.4 198.8C228.4 198.8 240.5 211.4 236.9 227.3C233.3 243.2 172.4 352 173.7 391.3C173.7 391.3 140.2 400.7 82.8 381.2C82.7 381.2 54.5 279.7 78.2 188.9Z" fill="#1D70B7"/>
<path d="M167.4 131.2L150.9 177.7C149.5 181.2 150.3 185.2 152.9 187.9C158.2 193.4 168.8 200.4 185.1 193.7C190 191.7 193.4 187.3 194.1 182.1L199.4 143.8L167.4 131.2Z" fill="url(#paint1_linear_1294:4915)"/>
<path d="M225.1 103.9C225.2 104.9 212.2 167.6 212.2 167.6L176.5 159.4L180 98.1C180.1 98.1 222.9 87.8 225.1 103.9Z" fill="url(#paint2_linear_1294:4915)"/>
<path d="M188.1 111.8L183.7 143.9C183.6 144.3 183.6 144.7 183.7 145.1C184.1 147.6 185.9 156.2 194.6 153.8C202.5 151.6 209.7 149.7 214.6 151.2C216.8 151.9 218.2 154.2 217.7 156.4C216.5 162.1 213.6 174.9 209.4 185.6C208.5 187.8 206.2 188.9 203.9 188.3C197.1 186.3 183 181.7 172.5 175.3C171.1 174.4 170.2 172.9 170.3 171.2C170.7 163.1 171.7 138.4 170.9 131.5C170.2 125 162.2 121.1 158.8 119.7C157.7 119.2 156.8 118.3 156.3 117.2C154.7 113.2 152.5 103.9 164.2 100.1C166.7 99.3 168 96.7 167.1 94.2C165.4 89.4 164.7 82 173.7 78C182.9 73.9 189.8 78.8 193.5 82.8C195 84.4 197.4 84.7 199.3 83.5C200.4 82.8 201.7 82.6 203.4 83.6C205.6 85 208.6 84.1 209.7 81.7C211.9 77.2 216.4 72.3 225.4 73.9C241.4 76.7 243.2 94.4 238.9 104.8C234.7 115.2 217.5 111.2 208.9 105.9C202.4 101.9 193.9 106 190.2 108.3C189 109.2 188.2 110.4 188.1 111.8Z" fill="#0C518C"/>
<path d="M169.4 143.4C169.4 143.4 176 125 169.3 120.5C162.6 116 152.5 118.3 154.7 131.6C157.4 148.2 169.4 143.4 169.4 143.4Z" fill="#FFC77A"/>
<path d="M612 516.6V529.7C612 542.1 602.6 552.1 591 552.1H0V494.1H591C602.6 494.2 612 504.2 612 516.6Z" fill="#AFCDFB"/>
<path d="M474.4 499.9C474.7 500 519.9 515.3 513.5 460.7C513.5 460.7 520.6 435.2 496.3 431.2C496.3 431.2 487.1 413.3 464.6 423.2C471.5 410 476.7 394.2 458.9 387.8C452 385.3 444.3 385.9 437.2 387.9C425.7 391.2 414.9 398.9 410.9 410.2C407 421.5 412 436 423.3 440C426.4 441.1 430.5 442.1 430.9 445.4C431.2 447.6 429.5 449.5 428.2 451.2C422.7 458.2 420.8 469 426.7 475.7C431.5 481.2 439.6 482.1 446.9 482.5C453.9 483 459.2 482.6 464.5 487.4C467.7 490.2 470.3 498.5 474.4 499.9Z" fill="#0C518C"/>
<path d="M384.8 454.4C384.3 461.4 378.4 469.8 375.3 476.3C374.8 477.3 374.4 478.4 373.9 479.7C371.2 486.6 368.1 496.5 363.5 500.1C358.4 504.1 348.9 501.8 342.8 502C342.6 502 342.4 502 342.2 502C320.9 503.3 299.6 505.3 278.5 506.1C253.6 507.1 228.8 506.5 204 501.3C200.1 500.5 185.1 500.1 182.4 497.2C151.1 463.4 185.1 428.4 185.1 428.4C206.5 437.3 232.9 433.6 255 429.9C268 427.7 280.3 425.1 292.4 423.2C300.7 421.9 309 420.9 317.3 420.6C331.5 420.1 346 421.7 361.3 427.3C371.6 431.2 385.6 442.3 384.8 454.4Z" fill="url(#paint3_linear_1294:4915)"/>
<path d="M431.7 458.7C431.7 458.7 381.2 431.1 361.4 429C361.4 429 358.6 455.9 371.4 473.2C371.4 473.2 416.4 477 424.4 479.8L431.7 458.7Z" fill="url(#paint4_linear_1294:4915)"/>
<path d="M477.9 500.5C477.9 500.5 407.1 512.8 402.6 483C398.1 453.1 448.5 444.3 448.5 444.3C448.5 444.3 481.5 449.4 486.9 463.3C492.3 477.1 477.9 500.5 477.9 500.5Z" fill="url(#paint5_linear_1294:4915)"/>
<path d="M504.8 465.1C504.8 465.1 496.5 483 487.5 483.9C478.5 484.8 476.5 453.9 477.8 445.6L444.8 432C444.8 432 481.1 419 498.2 430.5C515.2 442.1 504.8 465.1 504.8 465.1Z" fill="#0C518C"/>
<path d="M449.3 452.2C449.3 452.2 471 440 460.2 431.2C449.4 422.4 436.2 441.3 440.7 449.6L449.3 452.2Z" fill="url(#paint6_linear_1294:4915)"/>
<path d="M205.1 433.3C197.6 454.9 193.9 480.4 200.3 500.9C200.5 501.5 200.7 502.1 200.9 502.7C133.9 505.5 67 508.3 0 511.1V437.1C8.8 434.8 22.3 431.3 38.9 426.9C83.1 415.1 96.1 411.1 118.2 407.9C156.1 402.5 169.1 407 174.3 409.1C189.6 415.2 199.6 425.5 205.3 432.6C205.3 432.8 205.2 433.1 205.1 433.3Z" fill="#FFB142"/>
<path d="M342.7 502C342.5 502 342.3 502 342.1 502C320.8 503.3 299.5 505.3 278.4 506.1C283 494.3 287.6 480.3 291.3 464.5C294.9 449 296.9 434.8 298 422.3C300.2 422 302.4 421.7 304.8 421.5C309.1 421 313.3 420.8 317.2 420.6C325.7 447.8 334.2 474.9 342.7 502Z" fill="#F99723"/>
<path d="M430.6 445.7C438.1 433.2 451.1 424.5 465.6 423C467.9 422.8 468 419.1 465.6 419.3C449.7 420.9 435.6 430.2 427.4 443.8C426.2 445.9 429.4 447.7 430.6 445.7Z" fill="#FFB142"/>
<path d="M340.9 458.2C283.5 463.2 199.3 490.8 108.4 509.8C87.6 504.1 75.5 506.6 63.5 513.5C61 514.9 62.2 518.8 65.1 518.5C82.2 516.7 96.6 515.5 107.7 521.2C194.7 508.5 275.4 505.1 348.1 504.2C367.8 500.8 374.3 483.6 365.6 470C360.3 461.7 350.7 457.3 340.9 458.2Z" fill="url(#paint7_linear_1294:4915)"/>
<path d="M296.2 320.8C295.2 320.1 294.2 319.3 293.2 318.6C287.9 314.8 282.5 311.1 277.2 307.3C272.5 304 266.5 303.2 260.8 302.7C254.6 302.1 248.2 302.7 242 301.7C236.8 300.9 227.5 295.1 222.5 293.6C215.5 291.5 208.4 313.8 207.6 317.7C216.7 320.2 229 321.3 238.4 321C244 320.8 249.9 320.9 255.3 322.2C256 322.4 256.6 322.5 257.2 322.9C259.2 324.3 259.3 329.3 260.5 331.5C261.8 334.1 263.9 336.8 264.1 339.8C264.3 343.2 262.2 346.7 260.7 349.5C263.2 350.4 266.1 349.9 268.2 348.4C269.8 347.3 270.9 345.7 271.8 344C273.3 341.2 273.2 331.8 276.8 330.8C281.8 329.4 288.6 336.7 292.7 339C296.9 341.3 301.9 343.2 306.6 342.3C312.4 341.2 317.8 340.2 323.1 337.5C322.9 334 322.5 333.1 319 332.2C316.7 331.6 314.3 331.7 312.1 330.9C306.3 328.6 301.2 324.5 296.2 320.8Z" fill="url(#paint8_linear_1294:4915)"/>
<path d="M300.461 254.195L341.45 245.625L345.96 234.471L337.333 226.07L296.343 234.641L291.834 245.794L300.461 254.195Z" fill="#0C518C"/>
<path d="M472.348 228.365L343.459 255.406L335.21 216.097L476.153 186.583L480.613 208.118L472.348 228.365Z" fill="#1D70B7"/>
<path d="M284.2 261.8L283.7 333.8L278.8 340.5L273.7 333.8L267.2 297.8L273.8 263.6L279.1 256.1L284.2 261.8Z" fill="#0C518C"/>
<path d="M263.7 333.6L264.2 261.6L270.4 256L274.2 263.4L273.7 333.6L268.6 340.3L263.7 333.6Z" fill="#0C518C"/>
<path d="M306.224 253.479C307.318 270.043 294.717 284.386 278.153 285.481L269.505 255.926L274.222 225.408C290.886 224.306 305.229 236.907 306.224 253.479Z" fill="#66B3FF"/>
<path d="M274.222 225.408L278.153 285.481C261.589 286.575 247.245 273.974 246.151 257.41C245.057 240.845 257.658 226.502 274.222 225.408Z" fill="#66B3FF"/>
<path fill-rule="evenodd" clip-rule="evenodd" d="M274.606 333.536C269.933 333.535 227.373 333.4 227.373 333.4C227.373 333.4 220 335.5 220 348.064C220 360.628 227.373 362.728 227.373 362.728L272.817 362.864C272.818 362.853 272.819 362.842 272.82 362.83C297.762 362.916 320.587 363 320.587 363C320.587 363 328 360.5 328 348.5C328 336.5 320.587 333.672 320.587 333.672C320.587 333.672 278.959 333.536 274.66 333.491L274.606 333.536ZM274.107 342.336C274.098 342.482 274.089 342.628 274.08 342.775C274.215 342.717 274.349 342.66 274.484 342.602C274.359 342.513 274.233 342.425 274.107 342.336Z" fill="#009EE2"/>
<path d="M516 239.6L498.5 323.6L482.1 323.3L460.4 310.9L475.8 235.2L495.7 231.6L516 239.6Z" fill="#0C518C"/>
<path d="M505.024 251.876C527.113 250.283 543.728 231.085 542.136 208.996C540.543 186.906 521.344 170.291 499.255 171.884C477.166 173.477 460.55 192.675 462.143 214.764C463.736 236.853 482.934 253.469 505.024 251.876Z" fill="#66B3FF"/>
<path d="M475.4 382C497.547 382 515.5 364.047 515.5 341.9C515.5 319.753 497.547 301.8 475.4 301.8C453.253 301.8 435.3 319.753 435.3 341.9C435.3 364.047 453.253 382 475.4 382Z" fill="#66B3FF"/>
<path d="M228.9 314.7C226.3 321.8 114.1 326.4 117.7 314.4C107.9 322.1 97.4 337.4 93 365.8C130.3 375.3 208.4 351.6 223.4 339.9C225.9 337.9 228.8 336.4 232 336.4C238.5 336.4 249.7 336.1 255.4 334C263.7 330.9 282.1 358.5 294 346.4C292.1 342.3 289 336.5 283.8 330.6C278.9 325 268.7 313.2 252.3 311C242.7 309.8 234.5 312.2 228.9 314.7Z" fill="url(#paint9_linear_1294:4915)"/>
<path d="M117.7 314.5C99.8 298.8 117.5 223.6 117.5 223.6L77.2 190.3C77.2 190.3 22.7 329.2 86.7 365.6C93.5 369.5 95.5 369.6 95.3 366.4C93.7 340.5 112.1 324.6 117.7 314.5Z" fill="#1D70B7"/>
<path d="M115.7 311.7C115.2 312 114.5 312 114 311.6C95.6999 295.5 112.6 222.5 113.3 219.4C113.5 218.7 114.2 218.2 114.9 218.4C115.6 218.6 116.1 219.3 115.9 220C115.7 220.7 98.5999 294.6 115.7 309.6C116.3 310.1 116.3 311 115.8 311.5C115.9 311.6 115.8 311.7 115.7 311.7Z" fill="#66B3FF"/>
</g>
<defs>
<linearGradient id="paint0_linear_1294:4915" x1="202.046" y1="259.405" x2="237.18" y2="317.418" gradientUnits="userSpaceOnUse">
<stop stop-color="#FFE5C5"/>
<stop offset="1" stop-color="#FFC77A"/>
</linearGradient>
<linearGradient id="paint1_linear_1294:4915" x1="146.682" y1="171.999" x2="202.644" y2="153.946" gradientUnits="userSpaceOnUse">
<stop stop-color="#FFE5C5"/>
<stop offset="1" stop-color="#FF9343"/>
</linearGradient>
<linearGradient id="paint2_linear_1294:4915" x1="210.817" y1="106.284" x2="151.654" y2="212.875" gradientUnits="userSpaceOnUse">
<stop stop-color="#FFE5C5"/>
<stop offset="1" stop-color="#FF9343"/>
</linearGradient>
<linearGradient id="paint3_linear_1294:4915" x1="271.738" y1="416.875" x2="281.025" y2="495.295" gradientUnits="userSpaceOnUse">
<stop stop-color="#FFDCAB"/>
<stop offset="1" stop-color="#FFC77A"/>
</linearGradient>
<linearGradient id="paint4_linear_1294:4915" x1="337.773" y1="424.248" x2="391.429" y2="459.33" gradientUnits="userSpaceOnUse">
<stop stop-color="#FFDCAB"/>
<stop offset="1" stop-color="#FFC77A"/>
</linearGradient>
<linearGradient id="paint5_linear_1294:4915" x1="465.377" y1="499.535" x2="386.985" y2="404.532" gradientUnits="userSpaceOnUse">
<stop stop-color="#FFDCAB"/>
<stop offset="1" stop-color="#FFC77A"/>
</linearGradient>
<linearGradient id="paint6_linear_1294:4915" x1="492.482" y1="471.218" x2="393.115" y2="398.439" gradientUnits="userSpaceOnUse">
<stop stop-color="#FFDCAB"/>
<stop offset="1" stop-color="#FFC77A"/>
</linearGradient>
<linearGradient id="paint7_linear_1294:4915" x1="214.984" y1="462.381" x2="215.758" y2="499.527" gradientUnits="userSpaceOnUse">
<stop stop-color="#FFDCAB"/>
<stop offset="1" stop-color="#FFC77A"/>
</linearGradient>
<linearGradient id="paint8_linear_1294:4915" x1="216.625" y1="246.153" x2="251.76" y2="304.166" gradientUnits="userSpaceOnUse">
<stop stop-color="#FFE5C5"/>
<stop offset="1" stop-color="#FFC77A"/>
</linearGradient>
<linearGradient id="paint9_linear_1294:4915" x1="194.861" y1="299.702" x2="193.772" y2="344.37" gradientUnits="userSpaceOnUse">
<stop stop-color="#FFE5C5"/>
<stop offset="1" stop-color="#FFC77A"/>
</linearGradient>
<clipPath id="clip0_1294:4915">
<rect width="905.3" height="685.1" fill="white" transform="translate(0 0.900024)"/>
</clipPath>
</defs>
</svg>
