<svg xmlns="http://www.w3.org/2000/svg" viewBox="0 0 994.04 358.64"><defs><style>.cls-1{fill:#fff;}</style></defs><title>Recurso 1</title><g id="Capa_2" data-name="Capa 2"><g id="Capa_1-2" data-name="Capa 1"><path class="cls-1" d="M725.64,313c-1.85-1-1.64-2.85-1.95-4.39-1.67-8.17-3.19-16.36-4.92-24.51-3-14-5.44-28.2-12.19-41.07-6.62-12.62-18.65-16.83-31.68-11.17a63.07,63.07,0,0,0-7.46,4A94.69,94.69,0,0,0,653.3,247c-11.86,10.75-25.43,16.13-41.78,16-55.49-.39-111-.15-166.49-.14-2,0-4,.1-6,0-3-.1-4.64,1.32-5.25,4.2-1.11,5.22-2.28,10.42-3.46,15.62-1.78,7.8-1.79,7.81,6,7.81,60.66,0,121.33-.1,182,.09a68.3,68.3,0,0,0,35.23-9.54c6-3.51,11.88-7.41,17.58-11.45,12.89-9.15,15.62-8.11,19.2,7.5,3.53,15.42,7,30.87,10.86,46.22,2.31,9.2,4.76,18.45,9.42,26.81,5.59,10,14.87,11.19,23.13,3.32,5.34-5.09,8.6-11.41,10.92-18.27,4.16-12.33,7.06-25,10.07-37.65q26.38-110.86,52.55-221.8c.34-1.46,0-3.42,2-4.22,1.42,1.2.91,2.8.93,4.21.12,8.82.47,17.65.64,26.47.81,43.64,2.19,87.26,4.5,130.85.78,14.63,1.19,29.34,4.16,43.74,3.08,15,15.33,19.19,27.34,9.75,5.08-4,8.5-9.35,12.08-14.56,8.77-12.78,17.34-25.69,26.21-38.39,4.83-6.91,9.44-7.83,16.74-3.62a93.24,93.24,0,0,1,10.26,7.1c21.18,16.29,45.3,21.67,71.51,19.69,3.81-.29,5.72-1.86,6.45-5.53,1-5.06,2.21-10.09,3.54-15.09,1-3.86.07-5.6-4.24-5.42-5.65.23-11.33.07-17,0-15.31-.19-29.15-4.46-41.18-14.32-5.92-4.85-12.22-9.25-18.48-13.66-14.14-10-22.79-9.47-35.76,1.92a45.81,45.81,0,0,0-4.14,4.33c-10.55,11.86-19.33,25.05-28.54,37.92-.86,1.22-1.21,3.22-3.35,3.07-1.16-1.36-.93-2.91-1-4.38-.75-46.8-2.34-93.58-4.09-140.36q-1.37-36.45-3.26-72.89c-.47-8.82-1.81-17.59-6.54-25.41-4.87-8-12.29-9.25-19.14-2.89a37.16,37.16,0,0,0-5.14,6.1c-5,7.22-7.88,15.39-10,23.84q-5.58,22.31-11,44.65c-18.5,75.58-36.76,151.23-53.06,227.32C727.31,308.35,727.48,311,725.64,313Z"/><path class="cls-1" d="M70.1,42.57c-13.67-.53-26.79,3-38,12.83-19.49,17.05-18.22,45.76,2.81,60.79a121,121,0,0,0,15.5,9.11,82.57,82.57,0,0,1,13.63,8.33,17.8,17.8,0,0,1,7.25,14.17c.25,10.61-5,17.8-16.25,21.1-14.75,4.34-28.76,2.18-41.55-6.36-3.51-2.34-5.44-2.22-7.22,1.72A111.88,111.88,0,0,1,.87,174.39c-1.59,2.74-1,4.45,1.64,6.19,20.23,13.46,54.19,13.36,74.12-.52,25-17.36,27-53.62-1.88-70.07-4-2.31-8.17-4.5-12.18-6.87a99.1,99.1,0,0,1-11-6.94c-5.93-4.67-10-10.71-8.29-18.6S50.07,64.36,58,62.11c9.58-2.7,18.72-.75,28,2.06,4,1.2,7.25,6.85,11.27,3.94,3.18-2.29,4.27-7.36,6.54-11,2.52-4.06,1.64-6.56-2.67-8.61C91.54,43.9,81.39,42.62,70.1,42.57Z"/><path class="cls-1" d="M313.56,188.35c2.33,0,4.66,0,7,0,3,.08,4.65-1.34,5.15-4.27,3.89-22.81,9.63-45.36,11.56-68.41,1.65-19.65-10.42-33-29.54-32.84C295,83,283.79,86.61,275,96.26c-2.06,2.28-3.46,3.55-4.62-.92-1.64-6.31-7-9.83-13.77-10.38-4.05-.33-6.1,1-6.77,5.26-1.53,9.7-3.43,19.34-5.18,29-3.83,21.13-7.56,42.28-11.56,63.38-.87,4.63.63,6.08,5,5.83a99.92,99.92,0,0,1,12,0c4.27.28,5.86-1.76,6.52-5.68,2-12,4.2-23.94,6.42-35.88,1.68-9,2.7-18.16,6.82-26.52,5.88-11.94,15.24-18.73,28.77-18.89,7.68-.09,12.43,3.92,14.37,11.35,1.18,4.49.5,8.94-.29,13.37q-4.53,25.31-9.15,50.61C301.52,188.39,301.52,188.39,313.56,188.35Z"/><path class="cls-1" d="M454.89,84.89v0c-2.83,0-5.67-.1-8.49,0-3,.13-3.83-1.2-3.26-4q1-5.14,1.79-10.34c1.58-10.57-4.49-17.24-15.28-17.08-3.37,0-5.25,1.24-5.81,4.72-1.07,6.57-2.37,13.1-3.56,19.66-1.22,6.72-1.39,6.88-8.39,7-7.61.09-7.61.09-9,7.51-1.69,8.83-1.69,8.83,7,9,5.63.12,5.94.46,4.93,6.23-1.62,9.35-3.51,18.66-4.93,28-1.63,10.68-5,21.12-4.65,32.07.34,11.24,6.9,19.21,17.84,21.71,7.91,1.81,15.87,1.4,23.83.09a5.16,5.16,0,0,0,4.7-4.44c.66-3.26,1.35-6.52,2-9.8.56-3-.56-4.37-3.82-3.92a46.81,46.81,0,0,1-9.43.69c-8.59-.59-12.49-5.26-11.08-13.63,2.92-17.4,6.19-34.75,9.2-52.14.64-3.67,2.52-5,6.14-4.93,5.32.15,10.66,0,16,0,1.87,0,4,0,4.67-2.1,1.37-4.09,3.31-8.67,1.8-12.58-1.36-3.55-6-1.29-9.13-1.78A19.86,19.86,0,0,0,454.89,84.89Z"/><path class="cls-1" d="M614.43,189.61c12.34-.15,23.35-3.65,32.82-11.65,15.07-12.74,15.85-36.14-4.59-47-6.17-3.28-12.51-6.25-18.6-9.69-4.2-2.37-7.57-5.72-7-11.15s4.29-8.5,9-10.44c7.34-3,14.77-2,22,.41,10.09,3.46,9.86,3.5,14.93-6.12,2.27-4.3,1-6.32-3-8a54.44,54.44,0,0,0-16.48-3.85c-15.34-1.3-29.67,1-41,12.64-13.53,13.92-10.7,33.47,6.22,42.8,4.08,2.25,8.37,4.11,12.58,6.12,3.61,1.73,7.24,3.4,10.09,6.35,4.51,4.68,4.81,10.88.59,15.8a19,19,0,0,1-9.72,5.83c-8.58,2.35-16.8,1.17-24.82-2.47-10.1-4.58-10-4.47-15.23,5.32-1.91,3.58-1.38,5.7,2.16,7.68C593.69,187.49,603.88,189.38,614.43,189.61Z"/><path class="cls-1" d="M361,188.39a41.51,41.51,0,0,1,5,0c4.76.57,6.82-1.52,7.64-6.21,4.5-25.89,9.27-51.74,13.87-77.63a31.48,31.48,0,0,0,.48-7.44c-.44-7-6-11.82-14-12.2-6-.29-6.38,0-8.13,9.66-5,27.34-9.84,54.69-14.78,82C348.7,189.83,348,188.28,361,188.39Z"/><path class="cls-1" d="M371.21,57.85c-.13,6.9,4.43,11.52,11.48,11.63,7.47.11,14.44-6.27,14.75-13.5A11.51,11.51,0,0,0,386,44,14.52,14.52,0,0,0,371.21,57.85Z"/><path class="cls-1" d="M570.35,84.9c-11.08,0-11.16,0-13.88,10.68-.89,3.48-2.12,3.42-4.05.94-13.13-16.85-39-15.78-53.25-8.92-22.61,10.94-36.85,39.15-33,66.32,2.36,16.64,10.69,29.41,27.18,34.42,17,5.16,32.63,1.87,45.29-11.54.77-.82,1.34-2,3.09-1.83,1.22,5.87,3.91,10.77,10.25,12.69,7.91,2.41,10.61.8,12-7.24q7.46-42.57,14.94-85.13C580.79,84.89,580.85,84.9,570.35,84.9Zm-23.19,44.5c-.74,14.66-5,27.72-17.33,37a27.36,27.36,0,0,1-11.83,5c-11.7,2.09-21.1-2.74-24.86-14-6-17.84-2.33-34.17,9.86-48.38,7.56-8.81,17.34-11.66,28.39-8,10.74,3.6,14.36,12.59,15.74,22.86A41.57,41.57,0,0,1,547.16,129.4Z"/><path class="cls-1" d="M215.34,84.9c-11.66,0-11-.72-13,10.12-.21,1.11-.08,2.59-1.34,3-1.63.56-2.28-1.09-3.07-2a35.17,35.17,0,0,0-19.79-11.89c-15.32-3.28-29.72-.73-42.06,9-19.05,15.1-26,35.58-24.25,59.3A40.36,40.36,0,0,0,122,177c16.12,17.86,44.67,18.18,61.45.84,1.22-1.25,2-3.12,4.39-3.51.43,7.42,4.29,12.09,11.49,13.7s9.16.28,10.45-7.09q7.44-42.31,14.93-84.62C226.75,84.89,226.76,84.88,215.34,84.9ZM171.16,169c-15,7.69-29.84.79-33.52-15.6-3.79-16.83.17-32.17,11.7-45,7.08-7.87,16.4-10.74,26.81-7.75,9.7,2.79,14.43,10.15,16.29,19.61.55,2.76.73,5.59,1.11,8.58C192,145.46,187.42,160.66,171.16,169Z"/></g></g></svg>